<?xml version="1.0" encoding="utf-8"?>
<!-- Generator: Adobe Illustrator 18.1.1, SVG Export Plug-In . SVG Version: 6.00 Build 0)  -->
<!DOCTYPE svg PUBLIC "-//W3C//DTD SVG 1.1//EN" "http://www.w3.org/Graphics/SVG/1.1/DTD/svg11.dtd">
<svg version="1.1" id="Layer_1" xmlns="http://www.w3.org/2000/svg" xmlns:xlink="http://www.w3.org/1999/xlink" x="0px" y="0px"
	 viewBox="0 0 130 130" enable-background="new 0 0 130 130" xml:space="preserve">
<g display="none">
	<g display="inline">
		<polygon fill="#001F85" points="103.1,70.4 116,48 128.9,70.4 		"/>
		<g>
			<polygon fill="#1A76BF" points="128.2,70 103.8,70 116,48.9 			"/>
			<polygon fill="#43B4ED" points="128.2,70 112.9,64.7 116,48.8 			"/>
			<polygon fill="#0B5A9C" points="128.2,70 103.8,70 112.9,64.7 			"/>
			<polygon fill="#2FA5EA" points="119.3,66.9 109.1,66.9 114.2,58.1 			"/>
		</g>
	</g>
	<g display="inline">
		<polygon fill="#001F85" points="81.5,112.2 94.4,89.9 107.3,112.2 		"/>
		<g>
			<polygon fill="#1A76BF" points="106.6,111.8 82.2,111.8 94.4,90.7 			"/>
			<polygon fill="#43B4ED" points="106.6,111.9 91.3,106.5 94.4,90.7 			"/>
			<polygon fill="#0B5A9C" points="106.6,111.9 82.2,111.8 91.3,106.5 			"/>
			<polygon fill="#2FA5EA" points="97.7,108.7 87.4,108.7 92.6,99.9 			"/>
		</g>
	</g>
	<g display="inline">
		<polygon fill="#001F85" points="49.9,81.2 62.8,58.9 75.7,81.2 		"/>
		<g>
			<polygon fill="#1A76BF" points="75,80.8 50.6,80.8 62.8,59.7 			"/>
			<polygon fill="#43B4ED" points="75,80.9 59.8,75.5 62.8,59.7 			"/>
			<polygon fill="#0B5A9C" points="75,80.9 50.6,80.8 59.8,75.5 			"/>
			<polygon fill="#2FA5EA" points="66.1,77.8 55.9,77.8 61,68.9 			"/>
		</g>
	</g>
	<g display="inline">
		<polygon fill="#001F85" points="12.1,120.6 25,98.2 37.9,120.6 		"/>
		<g>
			<polygon fill="#1A76BF" points="37.2,120.2 12.8,120.2 25,99.1 			"/>
			<polygon fill="#43B4ED" points="37.2,120.2 21.9,114.9 25,99 			"/>
			<polygon fill="#0B5A9C" points="37.2,120.2 12.8,120.2 21.9,114.9 			"/>
			<polygon fill="#2FA5EA" points="28.3,117.1 18.1,117.1 23.2,108.3 			"/>
		</g>
	</g>
	<g display="inline">
		<polygon fill="#001F85" points="6.4,28.1 19.3,5.8 32.2,28.1 		"/>
		<g>
			<polygon fill="#1A76BF" points="31.5,27.7 7.1,27.7 19.3,6.6 			"/>
			<polygon fill="#43B4ED" points="31.5,27.8 16.3,22.4 19.3,6.6 			"/>
			<polygon fill="#0B5A9C" points="31.5,27.8 7.1,27.7 16.3,22.4 			"/>
			<polygon fill="#2FA5EA" points="22.6,24.6 12.4,24.6 17.5,15.8 			"/>
		</g>
	</g>
	<g display="inline">
		<polygon fill="#001F85" points="52.1,38.4 65,16.1 77.9,38.4 		"/>
		<g>
			<polygon fill="#1A76BF" points="77.2,38.1 52.8,38.1 65,16.9 			"/>
			<polygon fill="#43B4ED" points="77.2,38.1 62,32.8 65,16.9 			"/>
			<polygon fill="#0B5A9C" points="77.2,38.1 52.8,38.1 62,32.8 			"/>
			<polygon fill="#2FA5EA" points="68.4,35 58.1,35 63.2,26.1 			"/>
		</g>
	</g>
	<g display="inline">
		<polygon fill="#001F85" points="19.3,61.3 32.2,39 45.1,61.3 		"/>
		<g>
			<polygon fill="#1A76BF" points="44.4,60.9 20,60.9 32.2,39.8 			"/>
			<polygon fill="#43B4ED" points="44.4,61 29.2,55.7 32.2,39.8 			"/>
			<polygon fill="#0B5A9C" points="44.4,61 20,60.9 29.2,55.7 			"/>
			<polygon fill="#2FA5EA" points="35.5,57.9 25.3,57.9 30.4,49 			"/>
		</g>
	</g>
	<g display="inline">
		<polygon fill="#001F85" points="103.1,23.3 116,1 128.9,23.3 		"/>
		<g>
			<polygon fill="#1A76BF" points="128.2,23 103.8,23 116,1.9 			"/>
			<polygon fill="#43B4ED" points="128.2,23 112.9,17.7 116,1.8 			"/>
			<polygon fill="#0B5A9C" points="128.2,23 103.8,23 112.9,17.7 			"/>
			<polygon fill="#2FA5EA" points="119.3,19.9 109.1,19.9 114.2,11.1 			"/>
		</g>
	</g>
</g>
<g>
	<circle fill="none" stroke="#8ABFE6" stroke-width="2" stroke-miterlimit="10" cx="39.1" cy="90.2" r="4.9"/>
	<circle fill="none" stroke="#8ABFE6" stroke-width="2" stroke-miterlimit="10" cx="82.3" cy="98.7" r="5.8"/>
	<path fill="none" stroke="#8ABFE6" stroke-width="2" stroke-miterlimit="10" d="M91.3,55.2c1.3-1.8,3.9-2.2,5.7-0.9
		c1.8,1.3,2.2,3.9,0.9,5.7c-1.3,1.8-3.9,2.2-5.7,0.9C90.4,59.5,90,57,91.3,55.2z"/>
	<path fill="none" stroke="#8ABFE6" stroke-width="2" stroke-miterlimit="10" d="M63.1,31.9c-1.3-1.8-0.9-4.3,0.9-5.6
		s4.3-0.9,5.6,0.9c1.3,1.8,0.9,4.3-0.9,5.6C66.9,34.1,64.4,33.7,63.1,31.9z"/>
	<circle fill="none" stroke="#8ABFE6" stroke-width="2" stroke-miterlimit="10" cx="36.5" cy="52.6" r="5.2"/>
	<line fill="none" stroke="#8ABFE6" stroke-width="2" stroke-miterlimit="10" x1="79.2" y1="93.4" x2="66.2" y2="70.7"/>
	<line fill="none" stroke="#8ABFE6" stroke-width="2" stroke-miterlimit="10" x1="90.5" y1="58.4" x2="69.2" y2="62.9"/>
	<g>
		<g>
			<line fill="none" stroke="#8ABFE6" stroke-width="2" stroke-miterlimit="10" x1="65.6" y1="35.8" x2="65.4" y2="37.8"/>
			
				<line fill="none" stroke="#8ABFE6" stroke-width="2" stroke-miterlimit="10" stroke-dasharray="3.3677,3.3677" x1="65.1" y1="41.1" x2="63.8" y2="52.8"/>
			<line fill="none" stroke="#8ABFE6" stroke-width="2" stroke-miterlimit="10" x1="63.6" y1="54.5" x2="63.4" y2="56.5"/>
		</g>
	</g>
	<line fill="none" stroke="#8ABFE6" stroke-width="2" stroke-miterlimit="10" x1="41.3" y1="54.8" x2="56" y2="61.4"/>
	<g>
		<g>
			<line fill="none" stroke="#8ABFE6" stroke-width="2" stroke-miterlimit="10" x1="43.3" y1="85.6" x2="44.7" y2="84.1"/>
			
				<line fill="none" stroke="#8ABFE6" stroke-width="2" stroke-miterlimit="10" stroke-dasharray="3.4686,3.4686" x1="47" y1="81.5" x2="55.1" y2="72.5"/>
			<line fill="none" stroke="#8ABFE6" stroke-width="2" stroke-miterlimit="10" x1="56.3" y1="71.2" x2="57.6" y2="69.7"/>
		</g>
	</g>
	<ellipse fill="none" stroke="#8ABFE6" stroke-width="2" stroke-miterlimit="10" cx="62.6" cy="64.3" rx="6.9" ry="6.9"/>
</g>
</svg>
