<?xml version="1.0" encoding="utf-8"?>
<!-- Generator: Adobe Illustrator 18.1.1, SVG Export Plug-In . SVG Version: 6.00 Build 0)  -->
<!DOCTYPE svg PUBLIC "-//W3C//DTD SVG 1.1//EN" "http://www.w3.org/Graphics/SVG/1.1/DTD/svg11.dtd">
<svg version="1.1" id="Layer_1" xmlns="http://www.w3.org/2000/svg" xmlns:xlink="http://www.w3.org/1999/xlink" x="0px" y="0px"
	 viewBox="0 0 694.1 384" enable-background="new 0 0 694.1 384" xml:space="preserve">
<g id="Laptop" transform="translate(1.000000, 1.000000)" sketch:type="MSLayerGroup">
	<path id="bezel_1_" sketch:type="MSShapeGroup" fill="#2B2B2B" stroke="#8492A5" stroke-width="2" d="M594,0H98
		C84.5,0,73,11.1,73,24.8V351h546V24.8C619,11.1,607.5,0,594,0z"/>
	<circle id="webcam" sketch:type="MSShapeGroup" fill="#191B1F" cx="347" cy="19" r="4">
	</circle>
	<g id="bottom" transform="translate(0.000000, 351.000000)" sketch:type="MSShapeGroup">
		<path id="Shape" fill="#C5CACF" d="M640.8,31H51.3C20.6,31,0,20.5,0,16V2.4C0,1.1,1.3,0,3,0h686.1c1.7,0,3,1.1,3,2.4v14.1
			C692.1,20.1,676.1,31,640.8,31z"/>
		<path id="Line" fill="none" stroke="#E1E8F0" stroke-linecap="square" d="M0.5,14.5h689.7"/>
	</g>
	<rect id="screen_1_" x="95" y="39" sketch:type="MSShapeGroup" width="501.1" height="292">
	</rect>
	<path id="touchpad" sketch:type="MSShapeGroup" fill="#E1E8F0" d="M421,351v3.1c0,2.2-4.3,2.9-7.6,2.9H278.8
		c-3.5,0-7.8-0.7-7.8-2.9V351"/>
</g>
<g>
	<defs>
		<path id="SVGID_5_" d="M596.5,331.7h-500V42.3c0-1.1,0.9-2,2-2h496c1.1,0,2,0.9,2,2V331.7z"/>
	</defs>
	<clipPath id="SVGID_2_">
		<use xlink:href="#SVGID_5_"  overflow="visible"/>
	</clipPath>
	<g clip-path="url(#SVGID_2_)">
		
			<image overflow="visible" width="1392" height="1529" xlink:href="../../../../../../../../../Desktop/Screen Shot 2015-07-15 at 1.33.17 AM.png"  transform="matrix(0.3906 0 0 0.3906 74.6592 27.8169)">
		</image>
	</g>
</g>
<path fill="#BCC3C9" d="M1.5,366.5v2.9c3.3,4.9,22.9,13.6,50.8,13.6h589.5c35.3,0,51.3-10.9,51.3-14.5v-2.1H1.5z"/>
</svg>
