<?xml version="1.0" encoding="utf-8"?>
<!-- Generator: Adobe Illustrator 18.1.1, SVG Export Plug-In . SVG Version: 6.00 Build 0)  -->
<!DOCTYPE svg PUBLIC "-//W3C//DTD SVG 1.1//EN" "http://www.w3.org/Graphics/SVG/1.1/DTD/svg11.dtd">
<svg version="1.1" id="Layer_1" xmlns="http://www.w3.org/2000/svg" xmlns:xlink="http://www.w3.org/1999/xlink" x="0px" y="0px"
	 viewBox="0 0 130 130" enable-background="new 0 0 130 130" xml:space="preserve">
<g display="none">
	<polygon display="inline" fill="#690A41" points="48.5,96.2 31,65.9 48.5,35.6 83.5,35.6 101,65.9 83.5,96.2 	"/>
	<g display="inline">
		<polygon fill="#B30D4C" points="48.9,95.5 66,65.9 83.1,95.5 		"/>
		<polygon fill="#C30D52" points="83.1,95.5 66,65.9 100.2,65.9 		"/>
		<polygon fill="#CE0D5B" points="100.2,65.9 66,65.9 83.1,36.2 		"/>
		<polygon fill="#D60E6F" points="83.1,36.2 66,65.9 48.9,36.2 		"/>
		<polygon fill="#A60A41" points="48.9,36.2 66,65.9 31.8,65.9 		"/>
		<polygon fill="#AB0B4E" points="31.8,65.9 66,65.9 48.9,95.5 		"/>
		<polygon fill="#CE0D5B" points="57.4,80.7 48.9,65.9 57.4,51 74.6,51 83.1,65.9 74.6,80.7 		"/>
	</g>
</g>
<g display="none">
	
		<line display="inline" fill="none" stroke="#001F85" stroke-linecap="round" stroke-linejoin="round" stroke-miterlimit="10" x1="13.6" y1="102.2" x2="13.6" y2="30.5"/>
	
		<line display="inline" fill="none" stroke="#001F85" stroke-linecap="round" stroke-linejoin="round" stroke-miterlimit="10" x1="116.1" y1="25.7" x2="116.4" y2="99.5"/>
	<g display="inline">
		<path fill="#FFFFFF" d="M41.7,73c-15,0-25-0.9-27.5-2.4c4.3-13.1,0.9-34.1,0.1-38.6c4.9,1.6,17.5,2.5,34.1,2.5
			c22.3,0,58.9-2,67.1-7.4c-0.7,5.4-2.9,26.7,0.3,38.2C111.6,69.5,72,73,41.7,73C41.7,73,41.7,73,41.7,73z"/>
		<g>
			<path fill="#001F85" d="M114.8,28c-0.8,6.6-2.6,26.1,0.3,37.2c-4.6,3.6-41.3,7.3-73.5,7.3c-19.4,0-25.2-1.4-26.9-2.2
				c4-12.7,1.1-31.8,0.1-37.6c5.5,1.5,17.6,2.3,33.5,2.3c14.8,0,30.3-0.7,42.7-2C103,31.7,111,30,114.8,28 M116.1,25.9
				c-4.9,5.3-39.7,8.1-67.7,8.1C32,34,18,33.1,13.6,31.2c0,0,5,24.9,0,39.5c2.3,1.9,13.7,2.7,28.1,2.7c29.3,0,71.2-3.4,74.6-8
				C112.5,52.5,116.1,25.9,116.1,25.9L116.1,25.9z"/>
		</g>
	</g>
	<g display="inline">
		<g>
			<defs>
				<rect id="SVGID_1_" x="41.5" y="39.6" width="41.6" height="25.3"/>
			</defs>
			<clipPath id="SVGID_2_">
				<use xlink:href="#SVGID_1_"  overflow="visible"/>
			</clipPath>
			<g clip-path="url(#SVGID_2_)">
				<defs>
					<rect id="SVGID_3_" x="41.5" y="39.6" width="41.6" height="25.3"/>
				</defs>
				<clipPath id="SVGID_4_">
					<use xlink:href="#SVGID_3_"  overflow="visible"/>
				</clipPath>
				<path clip-path="url(#SVGID_4_)" fill="#2C334C" d="M82.7,48.4c-0.2-1.2-0.7-2.3-1.5-3.3c-0.3-0.4-0.6-0.7-0.9-1.1
					c-0.1-0.1-0.1-0.2-0.2-0.3c0.2,0,0.3,0,0.4-0.1c-0.1-0.1-0.2-0.2-0.3-0.3c-1.4-1.1-2.9-1.9-4.5-2.7c-1.8-0.9-3.6-1.3-5.5-1.2
					c-1.1,0-2.1,0.1-3.2,0.3c-1.5,0.2-3,0.7-4.3,1.4c-1,0.6-2,1.1-3,1.6c-0.6,0.3-1.3,0.6-2,0.8c-1.4,0.4-2.7,1-3.9,1.8
					c-0.9,0.6-1.6,1.3-2.1,2.2c-0.4,0.7-0.8,1.3-1.2,2c-0.7,1.1-1.6,2.1-2.6,3c-0.1,0.1-0.2,0.2-0.4,0.2c0-0.1,0-0.1,0-0.2
					c0-0.3-0.1-0.7-0.1-1c-0.1-0.3-0.3-0.4-0.6-0.3c-0.2,0.1-0.4,0.4-0.5,0.6c-0.1,0.3-0.3,0.7-0.4,1c-0.4,0.9-0.9,1.7-1.3,2.6
					c-0.7,1.5-1.1,3.1-1.5,4.6C43.1,60.6,43,60.8,43,61c0.3-0.8,0.6-1.7,1-2.5c0.8-1.8,1.9-3.5,3.7-4.5c1-0.6,1.9-1.4,2.6-2.4
					c0.2-0.2,0.3-0.5,0.6-0.7c0.2-0.2,0.4-0.4,0.7-0.6c0.1-0.1,0.3-0.1,0.5-0.2c-0.1,0.2-0.1,0.2-0.1,0.3c0,0,0,0,0.1,0
					c0,0,0.1,0,0.1,0c0.4-0.1,0.5,0,0.5,0.4c-0.1,0.7-0.5,1.2-0.9,1.7c0,0-0.1,0-0.1,0c0,0,0.1,0.1,0.1,0.1c0.8,0.5,0.9,1.3,0.6,2.3
					c-0.1,0.5-0.5,0.7-1,0.6c0,0-0.1,0-0.1-0.1c0.4-0.1,0.6-0.1,0.7-0.3c0.3-0.4,0.3-1.2,0-1.6c-0.3-0.4-0.5-0.5-1-0.4
					c-0.7,0.2-1.4,0.5-1.9,1c-0.7,0.6-1.3,1.2-1.9,1.9c-0.6,0.6-1.1,1.3-1.4,2.1c-0.4,1-0.7,2.1-0.8,3.2c-0.1,0.5-0.1,0.9-0.1,1.4
					h0.3c0,0.1-0.1,0.2-0.1,0.4c0.2,0,0.3-0.1,0.4-0.1c0.4-0.1,0.8-0.4,1-0.8c0.5-0.8,1-1.5,1.5-2.3c0.3-0.4,0.6-0.9,1-1.2
					c1.1-1,2.3-1.7,3.7-2.3c1-0.5,2.1-0.7,3.2-0.9c0.1,0,0.2,0,0.3,0.1c0.3,0.2,0.7,0.4,1,0.6c0.8,0.6,1.8,0.8,2.8,0.9
					c0.7,0,1.4,0,2.1,0.1c0.6,0,1.2,0.2,1.7,0.7c0.2,0.2,0.3,0.4,0.3,0.7c0,0.6,0,1.2,0.1,1.8c0.1,1.5,0.7,2.7,2,3.6
					c0.9,0.6,1.9,0.3,2.5-0.3c-0.2,0-0.3,0-0.5,0c0-0.1,0.1-0.1,0.1-0.2c0.3-0.2,0.5-0.4,0.7-0.8c0.1-0.2,0.1-0.3-0.1-0.4
					C68.3,62,67.9,61.6,68,61c0.1-0.7,0.2-1.4,0.6-2c0.5-0.8,1.1-1.5,1.6-2.2c0,0,0.1-0.1,0.2-0.1c0.6-0.1,1.1,0.3,1.2,0.9
					c0.2,0.7-0.1,1.2-0.7,1.6c-0.3,0.2-0.6,0.3-0.8,0.4c-0.4,0.3-0.6,0.6-0.6,1.1c0,0.1,0.1,0.2,0.2,0.2c0.1,0,0.2,0,0.4,0
					c-0.2,0.4-0.5,0.7-0.3,1.2c0.4-0.4,0.8-0.4,1.2-0.3c0.3,0,0.7,0,1,0c0.5,0,1-0.2,1.4-0.6c0.3-0.4,0.6-0.7,0.9-1.1
					c0.1-0.1,0.1-0.2,0.1-0.4c0-0.3,0-0.7,0-1c0.5,0.1,0.9,0.5,0.8,1.1c0,0.3-0.1,0.6-0.3,0.9c-0.3,0.4-0.6,0.9-1,1.3
					c-0.3,0.3-0.6,0.7-0.6,1.1c0,0.1,0,0.2,0,0.3c0.1-0.1,0.2-0.1,0.3-0.2c0.1,0,0.2,0,0.3,0c0.1,0,0.1,0.2,0,0.3
					c0,0.1-0.1,0.2-0.1,0.3c-0.1,0.2-0.1,0.5,0,0.8c0.3-0.4,0.6-0.7,1-0.9c-0.1,0.4-0.2,0.7-0.1,0.9c0.4-0.2,0.8-0.5,1.2-0.7
					c1.1-0.5,1.9-1.2,2.6-2.2c0.4-0.6,0.7-1.2,0.8-1.9c0.1-1.5,0.7-2.9,1.5-4.2c0,0,0.1-0.1,0.1-0.1c0.2,0.4,0.4,0.7,0.6,1.1
					c0,0,0,0,0.1,0c0-0.1,0.1-0.2,0.1-0.3c0.1,0.2,0.2,0.4,0.3,0.5c0.2,0.2,0.4,0.2,0.5-0.1c0.1-0.1,0.1-0.2,0.1-0.4
					c0.1-1.2,0.2-2.4,0.3-3.5C83.2,51.3,82.9,49.9,82.7,48.4 M46.8,60.5c-0.2,0.2-0.5,0.3-0.8,0.2c-0.1-0.1-0.2-0.1-0.3-0.2
					c0.2,0,0.4,0.1,0.5,0.1c0.1,0,0.3-0.1,0.3-0.3c0.1-0.2,0-0.4-0.2-0.6c0,0,0,0.1,0,0.1c0,0.2-0.1,0.3-0.2,0.3
					c-0.1,0-0.2-0.1-0.3-0.2c-0.1-0.1,0-0.2,0.2-0.3c0.3-0.1,0.6-0.1,0.8,0.2C47,59.9,47,60.2,46.8,60.5"/>
				<path clip-path="url(#SVGID_4_)" fill="#2C334C" d="M57.1,61.9c0-0.1-0.1-0.2-0.1-0.3c0,0,0,0,0,0c-0.4,1-0.8,2.1-1.7,2.7
					c-0.2,0-0.4-0.1-0.6-0.1c-0.5,0-1.1,0-1.6,0c-0.1,0-0.2,0-0.2,0c-0.6,0-0.8,0.1-1.1,0.7c-0.2-0.3-0.2-0.5-0.2-0.8
					c-0.4-0.2-0.6-0.1-0.8,0.4c-0.2-0.2-0.2-0.4-0.1-0.6c0.1-0.2,0.1-0.4-0.1-0.6c0.4-0.3,0.7-0.5,1.2-0.5c0.8,0,1.4-0.4,1.9-0.9
					c0.1-0.1,0.1-0.2,0.1-0.3c0-0.4,0-0.7,0-1.1c0-0.3-0.1-0.6-0.3-0.8c-0.3,0.3-0.6,0.6-1,0.9c-0.8,0.7-1.7,1.2-2.7,1.5
					c-1.1,0.3-2.1,0.8-3.2,1.3c-0.2,0.1-0.4,0.2-0.7,0.3c0,0,0,0,0,0c0.1,0,0.1-0.1,0.2-0.1c0.8-0.6,1.6-1,2.5-1.3
					c0.7-0.3,1.4-0.5,2.2-0.8c0.5-0.2,0.9-0.5,1.2-0.9c0.6-0.6,1.2-1.3,1.8-1.8c0.8-0.7,1.8-0.9,2.8-0.8c0.4,0,0.9,0.1,1.3,0.2
					c0.1,0,0.2,0.1,0.2,0.2c0,0.7,0,1.4-0.2,2.1c0,0.1-0.1,0.2-0.1,0.3c-0.1-0.2-0.1-0.3-0.2-0.4C57.4,60.8,57.4,61.4,57.1,61.9
					C57.1,61.9,57.1,61.9,57.1,61.9"/>
				<path clip-path="url(#SVGID_4_)" fill="#2C334C" d="M41.5,63.8c0.3-0.6,0.6-1.1,1-1.7c0.3,0.2,0.5,0.5,0.6,0.8
					c0.2,0.6,0.6,1.1,1,1.6c0,0,0.1,0.1,0.1,0.2C43.2,64.8,42.3,64.5,41.5,63.8"/>
				<path clip-path="url(#SVGID_4_)" fill="#2C334C" d="M51.5,50c0,0-0.8,1.3-0.8,1.4c0,0.1-0.5,1.3-1,1.7c-0.5,0.4-2.1,1.5-2.9,2.2
					c-0.8,0.7-1.7,1.6-2.9,4.6c0,0-0.2,0.5-0.2,0.7c-0.2,0.9-0.7,0.6-0.7,0.6l1.2-3.9l2.2-3.3"/>
				<path clip-path="url(#SVGID_4_)" fill="#2C334C" d="M46,63.7c0,0,0-0.3,0.1-0.6c0.2-0.2,0.4-0.8,2.3-1.7
					c1.9-0.9,2.2-0.8,2.8-1.4c0.6-0.6,2.3-3.9,6.6-2l-2.2,0.6c0,0-1.6-0.3-2.4,0.7c-0.8,1-1.5,2-2.8,2.4C49,62.2,47.2,63,47.2,63
					l-0.6,0.3"/>
				<path clip-path="url(#SVGID_4_)" fill="#FFFFFF" d="M47,60.1c0,0.5-0.4,0.9-0.9,0.9s-0.9-0.4-0.9-0.9c0-0.5,0.4-0.9,0.9-0.9
					S47,59.6,47,60.1"/>
				
					<path clip-path="url(#SVGID_4_)" fill="none" stroke="#2C334C" stroke-width="10" stroke-linecap="round" stroke-miterlimit="10" d="
					M45.2,60.3c0,0,0.6,0.7,1.1-0.1"/>
			</g>
		</g>
	</g>
</g>
<g>
	<line fill="none" stroke="#BFDCF1" stroke-width="2" stroke-miterlimit="10" x1="42.5" y1="27.1" x2="42.5" y2="105"/>
	<path fill="none" stroke="#BFDCF1" stroke-width="2" stroke-miterlimit="10" d="M87.5,59.3c0,0-12.2-3.8-22.3,0
		c-10.8,4-22.7,0-22.7,0V28.3c0,0,6.5,6.9,22.3,0c14.7-6.4,22.7,0,22.7,0V59.3z"/>
</g>
</svg>
