<?xml version="1.0" encoding="utf-8"?>
<!-- Generator: Adobe Illustrator 18.1.1, SVG Export Plug-In . SVG Version: 6.00 Build 0)  -->
<!DOCTYPE svg PUBLIC "-//W3C//DTD SVG 1.1//EN" "http://www.w3.org/Graphics/SVG/1.1/DTD/svg11.dtd">
<svg version="1.1" id="Layer_1" xmlns="http://www.w3.org/2000/svg" xmlns:xlink="http://www.w3.org/1999/xlink" x="0px" y="0px"
	 viewBox="0 0 130 130" enable-background="new 0 0 130 130" xml:space="preserve">
<g display="none">
	<g display="inline">
		<polygon fill="#C29A00" points="50.1,49 40.9,20.7 65,3.2 89.1,20.7 79.9,49 		"/>
		<g>
			<polygon fill="#ECCB1A" points="50.6,48.3 65,23.3 79.4,48.3 			"/>
			<polygon fill="#FBD81B" points="79.4,48.3 65,23.3 88.3,20.8 			"/>
			<polygon fill="#FFD51D" points="88.3,20.8 65,23.3 65,3.9 			"/>
			<polygon fill="#DAC028" points="50.6,48.3 65,23.3 41.7,20.8 			"/>
			<polygon fill="#E6C522" points="41.7,20.8 65,23.3 65,3.9 			"/>
			<polygon fill="#F5D41F" points="58.5,34.6 54.4,22.1 65,14.4 75.6,22.1 71.5,34.6 			"/>
		</g>
	</g>
	<g display="inline">
		<polygon fill="#C29A00" points="9.2,126.8 0,98.5 24.1,81 48.2,98.5 39,126.8 		"/>
		<g>
			<polygon fill="#ECCB1A" points="9.6,126.1 24.1,101.1 38.5,126.1 			"/>
			<polygon fill="#FBD81B" points="38.5,126.1 24.1,101.1 47.4,98.7 			"/>
			<polygon fill="#FFD51D" points="47.4,98.7 24.1,101.1 24.1,81.7 			"/>
			<polygon fill="#E2BE25" points="9.6,126.1 24.1,101.1 0.7,98.7 			"/>
			<polygon fill="#E6BE22" points="0.7,98.7 24.1,101.1 24.1,81.7 			"/>
			<polygon fill="#F5D41F" points="17.5,112.4 13.5,100 24.1,92.3 34.7,100 30.6,112.4 			"/>
		</g>
	</g>
	<g display="inline">
		<polygon fill="#C29A00" points="91,105.9 81.8,77.6 105.9,60.1 130,77.6 120.8,105.9 		"/>
		<g>
			<polygon fill="#ECCB1A" points="91.5,105.2 105.9,80.2 120.4,105.2 			"/>
			<polygon fill="#FBD81B" points="120.4,105.2 105.9,80.2 129.3,77.7 			"/>
			<polygon fill="#FFD51D" points="129.3,77.7 105.9,80.2 105.9,60.8 			"/>
			<polygon fill="#DAC028" points="91.5,105.2 105.9,80.2 82.6,77.7 			"/>
			<polygon fill="#E6C522" points="82.6,77.7 105.9,80.2 105.9,60.8 			"/>
			<polygon fill="#F5D41F" points="99.4,91.5 95.3,79 105.9,71.3 116.5,79 112.5,91.5 			"/>
		</g>
	</g>
</g>
<path fill="none" stroke="#BFDCF1" stroke-width="2" stroke-miterlimit="10" d="M54.8,76.9c-2.6-1.2-5-3-7.1-5.2l-0.2-0.3
	c-4.5-4.8-6.8-11.3-6.4-17.9l1.8-25.4h44.4l1.7,25.8c0.4,6.6-1.9,13.1-6.4,17.9l0,0c-2.2,2.3-4.6,4-7.3,5.3"/>
<path fill="none" stroke="#BFDCF1" stroke-width="2" stroke-miterlimit="10" d="M90.3,68.4c-2.4-2.9-2.3-7.2,0.3-10l5.1-5.4
	c5.2-5.5,6.7-13.7,3.9-20.7c-1-2.5-3.3-3.4-5.1-3.4c-1.7,0-4,1-4.9,3.5l-1.4,4.4c0,0-1-6.5-0.6-7c1.5-2.4,4-3.8,6.9-3.8
	c3.5-0.1,6.6,2,7.9,5.3c3.3,8.1,1.5,17.5-4.4,23.9l-5.1,5.4c-1,1.1-1.4,2.7-1.1,4.1c0.3,1.4-0.1,2.9-1.2,3.8L90.3,68.4z"/>
<path fill="none" stroke="#BFDCF1" stroke-width="2" stroke-miterlimit="10" d="M39.7,68.4c2.4-2.9,2.3-7.2-0.3-10L34.4,53
	c-5.2-5.5-6.7-13.7-3.9-20.7c1-2.5,3.3-3.4,5.1-3.4c1.7,0,4,1,4.9,3.5l1.4,4.4c0,0,1-6.5,0.6-7c-1.5-2.4-4-3.8-6.9-3.8
	c-3.5-0.1-6.6,2-7.9,5.3c-3.3,8.1-1.5,17.5,4.4,23.9l5.1,5.4c1,1.1,1.4,2.7,1.1,4.1c-0.3,1.4,0.1,2.9,1.2,3.8L39.7,68.4z"/>
<path fill="none" stroke="#BFDCF1" stroke-width="2" stroke-miterlimit="10" d="M87.7,28.1H42.3c-0.7,0-1.3-0.6-1.3-1.3v0
	c0-0.7,0.6-1.3,1.3-1.3h45.4c0.7,0,1.3,0.6,1.3,1.3v0C89,27.5,88.4,28.1,87.7,28.1z"/>
<path fill="none" stroke="#BFDCF1" stroke-width="2" stroke-miterlimit="10" d="M54.8,77h20.4l0,0c0,1.6-1.3,2.8-2.8,2.8H57.7
	C56.1,79.8,54.8,78.6,54.8,77L54.8,77z"/>
<path fill="none" stroke="#BFDCF1" stroke-width="2" stroke-miterlimit="10" d="M70.6,79.8H59.4c2.2,4.9,1.9,10.1-1,14.9h13.2
	C68.7,89.9,68.3,84.7,70.6,79.8z"/>
<path fill="none" stroke="#BFDCF1" stroke-width="2" stroke-miterlimit="10" d="M58.4,94.7c-2.8,2.2-5.5,5.8-5.5,9.8H77
	c0-4-2.6-7.6-5.5-9.8H58.4z"/>
</svg>
