<?xml version="1.0" encoding="utf-8"?>
<!-- Generator: Adobe Illustrator 18.1.1, SVG Export Plug-In . SVG Version: 6.00 Build 0)  -->
<!DOCTYPE svg PUBLIC "-//W3C//DTD SVG 1.1//EN" "http://www.w3.org/Graphics/SVG/1.1/DTD/svg11.dtd">
<svg version="1.1" id="Layer_1" xmlns="http://www.w3.org/2000/svg" xmlns:xlink="http://www.w3.org/1999/xlink" x="0px" y="0px"
	 viewBox="0 0 130 130" enable-background="new 0 0 130 130" xml:space="preserve">
<g>
	<line fill="none" stroke="#BFDCF1" stroke-width="2" stroke-miterlimit="10" x1="79.2" y1="60.9" x2="79.2" y2="71"/>
	<line fill="none" stroke="#BFDCF1" stroke-width="2" stroke-miterlimit="10" x1="77.2" y1="71.1" x2="77.2" y2="75.1"/>
	<line fill="none" stroke="#BFDCF1" stroke-width="2" stroke-miterlimit="10" x1="78.2" y1="59.9" x2="74.1" y2="59.9"/>
	<line fill="none" stroke="#BFDCF1" stroke-width="2" stroke-miterlimit="10" x1="75.1" y1="58.9" x2="75.1" y2="62.9"/>
	<line fill="none" stroke="#BFDCF1" stroke-width="2" stroke-miterlimit="10" x1="75.2" y1="75.2" x2="75.2" y2="81.3"/>
	<line fill="none" stroke="#BFDCF1" stroke-width="2" stroke-miterlimit="10" x1="76.2" y1="80.3" x2="72.1" y2="80.3"/>
	<line fill="none" stroke="#BFDCF1" stroke-width="2" stroke-miterlimit="10" x1="70" y1="80.3" x2="59.9" y2="80.3"/>
	<line fill="none" stroke="#BFDCF1" stroke-width="2" stroke-miterlimit="10" x1="60.8" y1="77.2" x2="60.8" y2="81.3"/>
	<line fill="none" stroke="#BFDCF1" stroke-width="2" stroke-miterlimit="10" x1="71.1" y1="79.2" x2="71.1" y2="77.2"/>
	<line fill="none" stroke="#BFDCF1" stroke-width="2" stroke-miterlimit="10" x1="69.1" y1="75.1" x2="69.1" y2="67"/>
	<line fill="none" stroke="#BFDCF1" stroke-width="2" stroke-miterlimit="10" x1="73.1" y1="67" x2="73.1" y2="75.2"/>
	<line fill="none" stroke="#BFDCF1" stroke-width="2" stroke-miterlimit="10" x1="65" y1="67" x2="65" y2="75.1"/>
	<line fill="none" stroke="#BFDCF1" stroke-width="2" stroke-miterlimit="10" x1="58.8" y1="77.2" x2="58.8" y2="75.2"/>
	<line fill="none" stroke="#BFDCF1" stroke-width="2" stroke-miterlimit="10" x1="56.8" y1="75.1" x2="56.8" y2="73.1"/>
	<line fill="none" stroke="#BFDCF1" stroke-width="2" stroke-miterlimit="10" x1="54.8" y1="73.1" x2="54.8" y2="69.1"/>
	<line fill="none" stroke="#BFDCF1" stroke-width="2" stroke-miterlimit="10" x1="52.8" y1="69.1" x2="52.8" y2="67"/>
	<line fill="none" stroke="#BFDCF1" stroke-width="2" stroke-miterlimit="10" x1="50.8" y1="67" x2="50.8" y2="62.9"/>
	<line fill="none" stroke="#BFDCF1" stroke-width="2" stroke-miterlimit="10" x1="51.8" y1="61.9" x2="55.9" y2="61.9"/>
	<line fill="none" stroke="#BFDCF1" stroke-width="2" stroke-miterlimit="10" x1="55.9" y1="64" x2="59.8" y2="64"/>
	<line fill="none" stroke="#BFDCF1" stroke-width="2" stroke-miterlimit="10" x1="58.8" y1="66.9" x2="58.8" y2="50.7"/>
	<line fill="none" stroke="#BFDCF1" stroke-width="2" stroke-miterlimit="10" x1="65" y1="50.7" x2="65" y2="62.9"/>
	<line fill="none" stroke="#BFDCF1" stroke-width="2" stroke-miterlimit="10" x1="71.1" y1="62.9" x2="71.1" y2="57.4"/>
	<line fill="none" stroke="#BFDCF1" stroke-width="2" stroke-miterlimit="10" x1="74.1" y1="57.9" x2="64.3" y2="57.9"/>
	<line fill="none" stroke="#BFDCF1" stroke-width="2" stroke-miterlimit="10" x1="64" y1="49.7" x2="59.9" y2="49.7"/>
</g>
</svg>
