<?xml version="1.0" encoding="utf-8"?>
<!-- Generator: Adobe Illustrator 18.1.1, SVG Export Plug-In . SVG Version: 6.00 Build 0)  -->
<!DOCTYPE svg PUBLIC "-//W3C//DTD SVG 1.1//EN" "http://www.w3.org/Graphics/SVG/1.1/DTD/svg11.dtd">
<svg version="1.1" id="Layer_1" xmlns="http://www.w3.org/2000/svg" xmlns:xlink="http://www.w3.org/1999/xlink" x="0px" y="0px"
	 viewBox="0 0 130 130" enable-background="new 0 0 130 130" xml:space="preserve">
<g display="none">
	<polygon display="inline" fill="#006648" points="105,39 105,39 105,39 105,39 65,27.3 25,39 25,39 25,39 25,39 25,39 25,91 
		65,102.7 105,91 105,39 	"/>
	<polygon display="inline" fill="#00855E" points="65,101.9 25.9,90.5 25.9,39.5 65,51 	"/>
	<polygon display="inline" fill="#00E788" points="65,101.9 104.1,90.5 104.1,39.5 65,51 	"/>
	<polygon display="inline" fill="#00C280" points="25.9,39.5 65,51 104.1,39.5 65,28.1 	"/>
</g>
<g display="none">
	<g display="inline">
		<path fill="#FFFFFF" stroke="#001F85" stroke-miterlimit="10" d="M53.6,64.3l3.1,3.1c1.1,1.1,3,1.1,4.2,0l11.8-11.8
			c1.1-1.1,1.1-3,0-4.2l-3.1-3.1l16.5-16.5l4.5,4.5c3.4,3.4,3.4,8.8,0,12.2L53.8,85.4c-3.4,3.4-8.8,3.4-12.2,0l-4.5-4.5L53.6,64.3z"
			/>
	</g>
	
		<ellipse transform="matrix(0.7071 -0.7071 0.7071 0.7071 -38.0211 53.3399)" display="inline" fill="#FFFFFF" stroke="#001F85" stroke-miterlimit="10" cx="45.4" cy="72.6" rx="11.7" ry="3.3"/>
	
		<ellipse transform="matrix(0.7071 -0.7071 0.7071 0.7071 -5.5084 66.8071)" display="inline" fill="#FFFFFF" stroke="#001F85" stroke-miterlimit="10" cx="77.9" cy="40.1" rx="11.7" ry="3.3"/>
</g>
<g>
	<path fill="none" stroke="#BFDCF1" stroke-width="2" stroke-miterlimit="10" d="M79.3,25.5H50.7c-3,0-5.5,2.5-5.5,5.5v68
		c0,3,2.5,5.5,5.5,5.5h28.6c3,0,5.5-2.5,5.5-5.5V31C84.8,28,82.3,25.5,79.3,25.5z M82.7,93.8H47V31.5h35.8V93.8z"/>
	<ellipse fill="none" stroke="#BFDCF1" stroke-width="2" stroke-miterlimit="10" cx="64.9" cy="99.1" rx="3.4" ry="3.4"/>
</g>
</svg>
